<?xml version="1.0" standalone="no"?><!DOCTYPE svg PUBLIC "-//W3C//DTD SVG 1.1//EN" "http://www.w3.org/Graphics/SVG/1.1/DTD/svg11.dtd"><svg t="1579766181299" class="icon" viewBox="0 0 1024 1024" version="1.1" xmlns="http://www.w3.org/2000/svg" p-id="5432" xmlns:xlink="http://www.w3.org/1999/xlink" width="200" height="200"><defs><style type="text/css"></style></defs><path d="M505.824 992c-296.96 0-421.472-107.264-421.472-327.68 0-182.624 141.216-373.216 312.416-433.312h218.048C786.08 291.104 927.264 481.696 927.264 664.32c0 220.416-124.512 327.68-421.44 327.68m116.8-362.208v-0.096c19.68-0.064 35.616-16.256 35.616-36.192s-15.936-36.064-35.616-36.192v-0.128h-72.32c0.16-0.768-0.096-1.504 0-2.304l84.704-87.488c13.856-15.712 6.784-28.704-7.2-42.976-14.048-14.336-37.024-17.344-48.416-4.864l-72.832 78.432-78.688-79.488c-9.984-10.048-29.344-6.752-43.296 7.328-13.984 14.112-17.184 33.664-7.264 43.712l80.48 81.28a17.792 17.792 0 0 0-3.072 6.368h-65.376v0.096h-0.192c-19.808 0-35.872 16.224-35.872 36.224s16.064 36.256 35.872 36.256l0.192-0.064v0.096h71.712v36.096h-71.712v0.064h-0.192c-19.808 0-35.872 16.256-35.872 36.256s16.064 36.256 35.872 36.256l0.192-0.064v0.064h71.712v36.448h0.736a45.056 45.056 0 0 0 43.936 54.08 45.088 45.088 0 0 0 43.936-54.08h0.448v-36.448l72.448-0.064c19.68-0.128 35.648-16.256 35.648-36.192s-15.968-36.064-35.648-36.192v-0.128h-72.448v-36.096h72.512m53.568-543.456l-7.52 9.504-0.48 0.576-63.744 80.48h-215.2l-63.616-80.352c-0.512-0.448-0.832-0.992-1.248-1.504l-6.912-8.704 1.216-2.464c-0.576-2.24-1.344-4.416-1.344-6.816 0-11.552 7.2-21.28 17.248-25.248l0.8-1.728s88.16-17.824 161.44-18.112c76.672-0.32 161.408 18.112 161.408 18.112l0.864 1.76a27.136 27.136 0 0 1 17.12 25.216c0 2.368-0.768 4.48-1.312 6.656l1.28 2.624z" p-id="5433"></path></svg>